<svg id="svg" xmlns="http://www.w3.org/2000/svg" xmlns:xlink="http://www.w3.org/1999/xlink" width="400" height="400" viewBox="0, 0, 400,400"><g id="svgg"><path id="path0" d="M23.553 60.932 C 14.257 64.284,7.355 70.535,2.902 79.633 L 0.391 84.766 0.391 200.000 L 0.391 315.234 2.902 320.367 C 7.458 329.676,14.423 335.877,23.927 339.087 C 28.464 340.619,30.711 340.636,201.566 340.437 L 374.609 340.234 380.078 337.562 C 383.431 335.924,387.234 333.204,389.906 330.531 C 392.579 327.859,395.299 324.056,396.937 320.703 L 399.609 315.234 399.609 200.000 L 399.609 84.766 396.937 79.297 C 393.441 72.141,387.234 65.934,380.078 62.438 L 374.609 59.766 201.172 59.595 C 31.564 59.428,27.642 59.457,23.553 60.932 M282.422 159.326 C 199.162 242.529,204.507 237.705,197.070 236.365 C 194.464 235.895,185.690 227.391,117.578 159.326 L 41.016 82.815 200.000 82.815 L 358.984 82.815 282.422 159.326 M73.632 250.195 L 23.438 300.389 23.438 200.000 L 23.438 99.611 73.632 149.805 L 123.827 200.000 73.632 250.195 M376.563 200.195 L 376.563 300.389 326.369 250.195 L 276.175 200.002 326.171 150.001 C 353.669 122.500,376.256 100.000,376.365 100.000 C 376.474 100.000,376.563 145.088,376.563 200.195 M182.813 256.814 C 203.415 266.561,214.232 262.643,240.648 235.865 L 259.031 217.230 309.006 267.209 L 358.980 317.188 200.000 317.188 L 41.020 317.188 91.001 267.202 L 140.982 217.216 159.358 235.814 C 175.399 252.048,178.380 254.716,182.813 256.814 " stroke="none" fill="#000" fill-rule="evenodd"></path></g></svg>
