<svg id="svg" xmlns="http://www.w3.org/2000/svg" xmlns:xlink="http://www.w3.org/1999/xlink" width="400" height="400" viewBox="0, 0, 400,400"><g id="svgg"><path id="path0" d="M176.172 0.910 C 75.696 12.252,0.391 97.375,0.391 199.609 C 0.391 257.493,19.900 304.172,60.647 343.781 C 165.736 445.935,343.383 403.113,389.736 264.453 C 436.507 124.544,322.897 -15.653,176.172 0.910 M191.406 55.078 L 191.406 92.188 157.031 92.188 C 130.045 92.188,122.659 91.978,122.669 91.211 C 122.721 87.167,138.595 58.702,146.616 48.270 C 158.380 32.969,179.900 18.092,190.430 17.979 C 191.197 17.971,191.406 25.906,191.406 55.078 M219.598 21.187 C 240.418 29.144,260.512 52.598,275.323 86.230 C 276.434 88.754,277.344 91.127,277.344 91.503 C 277.344 91.884,262.108 92.188,242.969 92.188 L 208.594 92.188 208.594 55.016 L 208.594 17.845 211.133 18.383 C 212.529 18.680,216.339 19.941,219.598 21.187 M282.973 37.226 C 299.012 45.430,313.439 55.785,326.755 68.650 C 334.293 75.933,346.875 90.334,346.875 91.679 C 346.875 91.959,335.537 92.184,321.680 92.180 L 296.484 92.172 293.795 84.953 C 287.905 69.146,275.769 47.725,265.866 35.656 C 263.800 33.138,261.283 30.075,260.273 28.849 L 258.437 26.619 266.415 29.728 C 270.803 31.439,278.254 34.813,282.973 37.226 M139.914 28.775 C 139.493 29.562,138.539 30.705,137.796 31.314 C 130.157 37.570,112.656 67.511,105.757 86.124 L 103.516 92.171 78.320 92.179 C 64.463 92.184,53.125 91.985,53.125 91.738 C 53.125 90.318,61.850 80.240,71.046 71.039 C 89.316 52.757,108.090 40.171,131.135 30.757 C 140.585 26.896,140.966 26.810,139.914 28.775 M97.656 109.711 C 97.656 109.896,96.624 114.203,95.361 119.282 C 90.727 137.930,88.056 155.576,86.603 177.148 L 85.642 191.406 51.348 191.406 L 17.054 191.406 17.590 185.352 C 19.790 160.502,31.895 121.403,40.810 110.352 C 41.562 109.420,97.656 108.788,97.656 109.711 M191.406 150.391 L 191.406 191.406 147.227 191.406 L 103.047 191.406 103.455 186.914 C 103.679 184.443,104.072 178.906,104.328 174.609 C 105.432 156.084,111.477 122.239,115.634 111.304 L 116.368 109.375 153.887 109.375 L 191.406 109.375 191.406 150.391 M284.366 111.304 C 289.231 124.101,295.047 159.667,296.346 184.570 L 296.702 191.406 252.648 191.406 L 208.594 191.406 208.594 150.391 L 208.594 109.375 246.113 109.375 L 283.632 109.375 284.366 111.304 M362.676 116.797 C 373.140 136.731,379.911 160.505,382.420 186.133 L 382.937 191.406 348.600 191.406 L 314.263 191.406 313.724 181.836 C 312.501 160.134,309.539 139.465,304.984 120.854 C 303.532 114.922,302.344 109.908,302.344 109.712 C 302.344 109.516,315.088 109.448,330.664 109.561 L 358.984 109.766 362.676 116.797 M86.603 222.852 C 88.056 244.424,90.727 262.070,95.361 280.718 C 96.624 285.797,97.656 290.108,97.656 290.298 C 97.656 290.489,84.912 290.552,69.336 290.439 L 41.016 290.234 36.225 280.682 C 26.090 260.476,19.616 237.535,17.590 214.648 L 17.054 208.594 51.348 208.594 L 85.642 208.594 86.603 222.852 M191.406 249.617 L 191.406 290.640 153.722 290.437 L 116.037 290.234 113.887 282.483 C 108.484 263.001,105.237 241.765,103.575 215.039 L 103.174 208.594 147.290 208.594 L 191.406 208.594 191.406 249.617 M296.346 215.430 C 295.047 240.333,289.231 275.899,284.366 288.696 L 283.632 290.625 246.113 290.625 L 208.594 290.625 208.594 249.609 L 208.594 208.594 252.648 208.594 L 296.702 208.594 296.346 215.430 M382.420 213.867 C 379.928 239.320,373.526 262.032,363.202 282.055 L 358.984 290.234 330.664 290.439 C 315.088 290.552,302.344 290.484,302.344 290.288 C 302.344 290.092,303.532 285.078,304.984 279.146 C 309.539 260.535,312.501 239.866,313.724 218.164 L 314.263 208.594 348.600 208.594 L 382.937 208.594 382.420 213.867 M105.757 313.876 C 112.874 333.077,126.356 356.192,137.685 368.614 C 141.810 373.137,141.230 373.286,132.682 369.894 C 109.104 360.537,86.715 345.466,68.749 326.857 C 61.322 319.165,53.125 309.409,53.125 308.262 C 53.125 308.015,64.463 307.816,78.320 307.821 L 103.516 307.829 105.757 313.876 M191.406 344.984 L 191.406 382.155 188.867 381.617 C 172.121 378.062,154.630 364.109,140.423 342.969 C 135.344 335.412,122.689 311.051,122.666 308.789 C 122.658 308.022,130.047 307.813,157.031 307.813 L 191.406 307.813 191.406 344.984 M277.344 308.497 C 277.344 311.315,266.285 332.768,259.775 342.578 C 245.606 363.930,228.040 378.028,211.133 381.617 L 208.594 382.155 208.594 344.984 L 208.594 307.813 242.969 307.813 C 262.108 307.813,277.344 308.116,277.344 308.497 M346.875 308.321 C 346.875 309.567,334.589 323.733,327.607 330.536 C 309.772 347.915,288.745 361.569,266.415 370.272 L 258.437 373.381 260.273 371.151 C 261.283 369.925,263.800 366.862,265.866 364.344 C 275.769 352.275,287.905 330.854,293.795 315.047 L 296.484 307.828 321.680 307.820 C 335.537 307.816,346.875 308.041,346.875 308.321 " stroke="none" fill="#ff702a" fill-rule="evenodd"></path></g></svg>
