<svg id="svg" xmlns="http://www.w3.org/2000/svg" xmlns:xlink="http://www.w3.org/1999/xlink" width="400" height="400" viewBox="0, 0, 400,400"><g id="svgg"><path id="path0" d="M79.688 1.501 C 75.552 2.601,74.635 3.131,74.747 4.355 C 74.852 5.514,87.501 56.125,87.851 56.791 C 87.938 56.956,101.037 53.774,101.395 53.500 C 101.518 53.406,98.550 41.330,94.800 26.665 C 87.082 -3.515,88.662 -0.885,79.688 1.501 M276.169 3.320 C 274.288 4.938,273.953 6.230,271.967 19.531 C 269.735 34.471,268.813 37.245,265.820 38.004 C 261.891 39.002,260.312 37.674,251.511 25.962 C 238.689 8.900,239.436 9.026,223.273 21.222 L 214.125 28.126 199.055 28.393 C 133.971 29.547,80.078 78.797,75.240 141.543 L 74.768 147.656 72.286 147.656 C 68.013 147.656,66.754 149.929,64.103 162.435 C 62.792 168.622,61.719 173.789,61.719 173.917 C 61.719 174.044,57.437 171.176,52.203 167.543 C 38.488 158.023,39.479 157.844,24.834 172.490 C 10.270 187.053,10.452 186.124,19.540 199.574 C 22.982 204.668,25.630 209.006,25.423 209.213 C 25.216 209.420,20.206 210.613,14.290 211.865 C -0.974 215.094,0.000 213.586,0.000 233.984 C 0.000 254.386,-0.975 252.878,14.325 256.139 C 20.253 257.402,25.283 258.616,25.502 258.836 C 25.722 259.056,23.062 263.366,19.592 268.415 C 10.411 281.771,10.239 280.884,24.834 295.479 C 39.428 310.074,38.541 309.902,51.897 300.721 C 56.946 297.250,61.270 294.603,61.505 294.838 C 61.740 295.074,62.954 300.111,64.202 306.032 C 66.011 314.610,66.866 317.194,68.410 318.750 L 70.348 320.703 86.328 320.703 L 102.308 320.703 104.246 318.750 C 105.791 317.194,106.645 314.610,108.454 306.032 C 109.702 300.111,110.906 295.084,111.129 294.861 C 111.352 294.637,115.679 297.284,120.743 300.743 C 133.017 309.124,133.912 309.157,141.812 301.497 L 147.520 295.962 147.792 308.723 C 148.123 324.203,150.170 329.469,157.953 334.863 L 160.938 336.931 160.938 357.889 C 160.937 382.987,161.378 384.941,168.688 392.250 C 175.865 399.427,178.237 400.000,200.781 400.000 C 222.606 400.000,225.543 399.353,232.265 393.065 C 240.088 385.748,241.392 380.295,241.400 354.863 L 241.406 337.461 245.969 332.988 C 253.391 325.713,254.034 323.249,254.685 299.609 C 255.399 273.687,256.701 270.417,270.329 260.332 C 281.627 251.972,285.208 248.982,284.929 248.145 C 284.551 247.012,277.071 238.399,276.408 238.335 C 272.754 237.977,249.997 258.418,246.276 265.400 C 241.282 274.771,241.190 275.289,240.669 296.875 C 240.132 319.066,239.939 319.935,234.633 323.983 L 231.764 326.172 202.015 326.388 C 160.081 326.693,162.358 328.216,161.608 299.359 C 160.814 268.811,157.512 261.489,138.281 247.632 C 66.144 195.653,72.480 92.883,150.231 53.790 C 167.928 44.892,198.355 39.127,199.096 44.531 C 199.243 45.605,203.156 51.582,207.793 57.813 C 217.274 70.554,217.775 71.597,216.042 74.950 C 214.284 78.349,212.188 78.560,198.912 76.674 C 175.726 73.382,177.437 71.836,173.397 99.728 C 169.786 124.654,169.878 122.845,172.096 125.424 C 173.748 127.344,174.941 127.653,188.307 129.622 C 204.107 131.949,205.582 132.439,206.988 135.833 C 208.485 139.448,206.995 141.204,194.184 150.915 C 177.556 163.520,177.496 161.464,195.176 184.969 C 211.916 207.224,210.031 206.699,227.173 193.878 C 246.374 179.516,248.936 181.099,245.535 205.224 C 242.572 226.244,240.472 224.283,270.510 228.546 C 298.111 232.463,295.880 233.706,298.875 212.733 C 301.213 196.359,301.878 194.922,307.116 194.922 L 310.547 194.922 319.385 206.641 C 332.513 224.047,330.638 224.043,353.777 206.720 C 376.562 189.662,375.989 191.985,362.021 173.283 C 353.448 161.804,352.815 160.192,355.525 156.746 C 357.566 154.152,359.068 154.123,375.391 156.364 C 394.647 159.007,393.556 160.102,397.260 134.413 C 400.840 109.586,400.537 104.688,395.421 104.688 C 391.577 104.687,367.247 100.488,365.872 99.587 C 360.446 96.032,362.614 92.247,375.800 82.259 C 393.208 69.071,393.197 71.150,375.977 48.257 C 358.866 25.511,360.735 26.036,343.249 39.066 C 330.659 48.447,328.769 49.152,325.355 45.739 C 322.990 43.374,322.991 43.061,325.378 26.652 C 328.235 7.011,329.400 8.163,302.813 4.351 C 279.799 1.052,278.848 1.015,276.169 3.320 M301.460 18.449 L 311.904 19.859 311.470 23.797 C 311.232 25.962,310.591 31.167,310.047 35.362 C 307.994 51.170,314.652 60.658,328.416 61.542 C 335.447 61.993,338.357 60.721,349.559 52.301 C 353.691 49.196,357.182 46.792,357.317 46.960 C 360.845 51.343,371.868 66.514,371.849 66.960 C 371.835 67.300,368.936 69.688,365.407 72.266 C 351.823 82.191,349.676 85.224,349.635 94.547 C 349.575 108.271,355.697 113.402,375.391 116.133 C 380.547 116.849,384.894 117.536,385.050 117.660 C 385.327 117.880,382.021 142.366,381.658 142.791 C 381.557 142.908,377.848 142.459,373.416 141.794 C 350.370 138.332,340.266 144.047,340.259 160.547 C 340.256 167.881,340.523 168.477,348.799 179.598 C 352.038 183.949,354.688 187.648,354.688 187.817 C 354.688 188.316,335.612 202.390,334.852 202.453 C 334.469 202.484,331.129 198.526,327.430 193.656 C 319.268 182.915,315.339 180.359,306.965 180.345 C 294.023 180.324,288.483 186.723,285.812 204.778 C 284.898 210.959,284.104 216.082,284.049 216.164 C 283.868 216.430,259.390 212.776,259.090 212.438 C 258.929 212.257,259.461 207.539,260.272 201.953 C 262.795 184.572,259.814 176.805,248.865 172.231 C 240.812 168.866,234.349 170.660,222.268 179.614 L 213.828 185.870 206.523 176.157 C 197.712 164.441,197.720 166.166,206.445 159.576 C 219.454 149.751,221.469 146.833,221.412 137.891 C 221.328 124.709,214.851 119.190,196.497 116.661 C 184.636 115.026,185.381 116.234,187.378 101.891 C 189.298 88.094,187.876 89.398,199.240 91.019 C 216.475 93.477,223.799 90.999,229.145 80.901 C 233.393 72.878,231.395 65.430,221.484 52.343 L 215.670 44.666 225.897 37.023 L 236.124 29.381 237.572 31.368 C 249.844 48.216,253.526 51.393,261.627 52.127 C 275.015 53.341,282.333 46.173,284.758 29.470 C 286.805 15.371,286.544 16.178,288.919 16.636 C 290.072 16.858,295.715 17.674,301.460 18.449 M21.109 41.459 C 18.863 44.547,17.357 47.292,17.761 47.560 C 18.166 47.828,28.702 55.342,41.175 64.258 C 53.649 73.174,64.050 80.469,64.288 80.469 C 64.756 80.469,71.810 70.588,72.094 69.534 C 72.253 68.944,28.193 36.996,26.126 36.202 C 25.613 36.006,23.355 38.371,21.109 41.459 M278.718 63.311 C 242.400 67.594,221.419 107.048,237.812 140.234 C 257.229 179.541,314.734 179.122,333.543 139.538 C 351.699 101.329,320.787 58.350,278.718 63.311 M146.094 78.774 C 108.821 106.303,97.128 155.034,117.803 196.683 C 127.401 216.020,141.465 229.190,164.303 240.232 C 183.390 249.460,193.750 262.762,193.750 278.042 L 193.750 280.469 200.889 280.469 L 208.028 280.469 207.490 275.195 C 205.303 253.780,193.296 237.906,171.875 228.111 C 113.801 201.556,103.799 128.031,153.257 91.254 C 156.192 89.071,158.594 87.099,158.594 86.872 C 158.594 86.446,151.561 74.991,151.312 75.012 C 151.235 75.018,148.887 76.711,146.094 78.774 M297.474 79.035 C 320.143 86.305,331.119 112.237,320.503 133.447 C 308.176 158.072,276.761 163.014,257.422 143.369 C 229.016 114.514,258.821 66.638,297.474 79.035 M33.203 107.669 C 18.594 111.314,6.585 114.331,6.516 114.374 C 5.582 114.966,9.819 128.093,10.846 127.786 C 11.541 127.578,23.528 124.558,37.484 121.076 C 51.441 117.594,62.996 114.608,63.164 114.441 C 63.512 114.092,60.974 103.166,60.247 101.888 C 59.926 101.323,50.934 103.245,33.203 107.669 M79.168 188.401 C 80.808 193.972,80.795 194.531,79.029 194.531 C 62.512 194.531,45.355 216.101,46.264 235.723 C 48.052 274.301,98.156 288.666,119.346 256.675 L 121.614 253.251 128.190 257.931 C 136.806 264.063,140.880 268.111,143.531 273.173 L 145.698 277.314 139.077 283.969 C 131.240 291.848,132.492 291.625,125.103 286.448 C 108.729 274.978,99.785 277.763,96.142 295.468 C 93.469 308.460,94.686 307.031,86.296 307.031 C 80.030 307.031,78.956 306.840,78.616 305.664 C 78.399 304.912,77.488 300.835,76.591 296.603 C 72.546 277.509,64.389 274.657,47.486 286.427 C 40.119 291.556,41.314 291.657,34.981 285.373 C 28.634 279.074,28.715 280.133,34.004 272.629 C 45.529 256.275,42.616 247.786,24.098 243.763 C 20.082 242.891,16.006 241.997,15.039 241.777 C 12.633 241.229,12.273 226.951,14.648 226.284 C 15.400 226.073,19.848 225.113,24.531 224.152 C 42.450 220.473,45.383 211.647,34.057 195.484 C 28.716 187.861,28.638 188.987,34.940 182.637 C 41.263 176.265,39.678 176.273,48.892 182.565 C 62.245 191.683,74.900 188.521,75.874 175.823 C 75.926 175.156,76.395 176.719,76.918 179.297 C 77.440 181.875,78.453 185.972,79.168 188.401 M88.846 212.807 C 92.540 220.298,97.539 227.768,104.275 235.861 L 110.322 243.127 108.986 246.090 C 104.803 255.366,91.753 261.672,81.407 259.417 C 55.054 253.674,53.153 216.933,78.799 209.037 C 85.469 206.983,86.089 207.216,88.846 212.807 M326.563 253.906 L 326.563 260.938 350.000 260.938 L 373.438 260.938 373.438 253.906 L 373.438 246.875 350.000 246.875 L 326.563 246.875 326.563 253.906 M319.642 287.165 C 317.339 289.978,315.582 292.396,315.736 292.539 C 315.890 292.683,324.976 300.262,335.927 309.383 L 355.839 325.965 359.595 321.772 C 361.660 319.465,363.693 316.974,364.112 316.235 C 364.863 314.909,326.902 282.013,324.652 282.042 C 324.199 282.047,321.944 284.353,319.642 287.165 M193.750 303.906 L 193.750 314.063 200.781 314.063 L 207.813 314.063 207.813 303.906 L 207.813 293.750 200.781 293.750 L 193.750 293.750 193.750 303.906 M286.719 323.438 L 286.719 346.875 293.750 346.875 L 300.781 346.875 300.781 323.438 L 300.781 300.000 293.750 300.000 L 286.719 300.000 286.719 323.438 M227.344 346.875 L 227.344 353.125 201.172 353.125 L 175.000 353.125 175.000 346.875 L 175.000 340.625 201.172 340.625 L 227.344 340.625 227.344 346.875 M227.344 369.967 C 227.344 383.464,223.228 385.931,200.701 385.935 C 178.904 385.938,175.000 383.844,175.000 372.150 L 175.000 367.188 201.172 367.188 L 227.344 367.188 227.344 369.967 " stroke="none" fill="#fff" fill-rule="evenodd"></path></g></svg>
