<svg id="svg" xmlns="http://www.w3.org/2000/svg" xmlns:xlink="http://www.w3.org/1999/xlink" width="400" height="400" viewBox="0, 0, 400,400"><g id="svgg"><path id="path0" d="M77.075 18.730 C 67.396 21.822,58.939 29.857,55.315 39.402 L 53.516 44.141 53.516 200.000 L 53.516 355.859 55.315 360.598 C 58.990 370.278,67.406 378.216,77.231 381.270 C 85.084 383.710,314.982 383.684,322.890 381.242 C 332.248 378.351,339.231 371.953,343.988 361.910 L 346.484 356.641 346.693 237.891 C 346.837 155.947,346.646 118.523,346.077 117.149 C 345.624 116.054,323.199 93.115,296.245 66.173 L 247.237 17.188 164.439 17.230 C 85.821 17.269,81.410 17.345,77.075 18.730 M234.541 71.680 L 234.766 108.203 237.239 112.891 C 240.424 118.925,246.037 124.349,251.953 127.110 L 256.641 129.297 292.773 129.522 L 328.906 129.747 328.906 240.565 L 328.906 351.384 326.723 355.563 C 325.134 358.605,323.504 360.382,320.730 362.097 L 316.919 364.453 200.000 364.453 L 83.081 364.453 79.270 362.097 C 76.493 360.380,74.866 358.605,73.271 355.552 L 71.082 351.362 71.283 199.252 L 71.484 47.143 73.840 43.333 C 75.555 40.559,77.332 38.929,80.375 37.339 L 84.553 35.156 159.435 35.156 L 234.316 35.156 234.541 71.680 M290.043 111.554 C 261.553 111.805,260.415 111.712,257.026 108.860 C 252.335 104.913,252.344 104.978,252.344 75.238 L 252.344 48.054 283.988 79.691 L 315.633 111.328 290.043 111.554 M154.287 81.832 C 116.380 95.346,125.181 150.781,165.234 150.781 C 203.010 150.781,214.176 99.509,179.912 83.388 C 173.151 80.207,160.928 79.464,154.287 81.832 M171.705 99.651 C 183.568 104.607,186.013 120.591,176.151 128.720 C 164.896 137.997,148.132 130.162,148.132 115.625 C 148.132 103.505,160.640 95.029,171.705 99.651 M148.047 154.410 C 122.987 158.172,104.599 180.649,105.586 206.312 C 105.922 215.044,108.147 217.969,114.453 217.969 C 120.841 217.969,122.778 215.275,123.491 205.402 C 124.657 189.260,131.311 179.449,144.848 173.910 C 150.847 171.456,179.621 171.456,185.620 173.910 C 199.186 179.461,205.907 189.377,206.928 205.348 C 207.556 215.169,209.572 217.969,216.016 217.969 C 222.275 217.969,224.549 215.024,224.866 206.510 C 225.732 183.194,211.378 162.874,189.063 155.824 C 184.846 154.492,154.474 153.445,148.047 154.410 M104.933 264.805 C 99.796 267.937,99.110 274.266,103.437 278.594 L 106.094 281.250 161.692 281.250 C 201.102 281.250,217.787 280.996,218.997 280.377 C 225.205 277.202,225.053 267.712,218.741 264.449 C 214.778 262.399,108.331 262.733,104.933 264.805 M104.193 310.760 C 98.617 315.276,100.169 324.670,106.795 326.510 C 111.758 327.888,274.329 327.645,277.657 326.254 C 283.316 323.890,284.869 315.999,280.529 311.659 L 278.245 309.375 192.052 309.392 C 111.565 309.409,105.749 309.499,104.193 310.760 " stroke="none" fill="#fff" fill-rule="evenodd"></path></g></svg>
