<svg id="svg" xmlns="http://www.w3.org/2000/svg" xmlns:xlink="http://www.w3.org/1999/xlink" width="400" height="400" viewBox="0, 0, 400,400"><g id="svgg"><path id="path0" d="M175.000 13.773 C 46.324 31.227,-26.267 170.217,32.856 285.938 C 86.567 391.064,224.465 420.596,317.185 346.828 C 398.471 282.157,411.227 162.824,345.573 81.259 C 305.509 31.486,238.849 5.113,175.000 13.773 M218.750 39.126 C 337.418 52.247,401.692 190.101,335.254 289.002 C 334.661 289.883,333.001 288.772,327.214 283.620 C 252.907 217.464,147.213 217.468,72.786 283.630 C 66.998 288.775,65.339 289.884,64.746 289.002 C 33.269 242.145,29.451 179.403,54.956 128.123 C 85.512 66.688,150.188 31.546,218.750 39.126 M184.375 63.669 C 131.505 75.468,107.568 136.358,138.315 180.834 C 161.233 213.986,208.595 222.697,242.283 199.955 C 285.542 170.752,286.096 105.376,243.334 75.815 C 226.904 64.456,202.954 59.522,184.375 63.669 " stroke="none" fill="#fff" fill-rule="evenodd"></path></g></svg>
